<svg width="17" height="16" viewBox="0 0 17 16" fill="none" xmlns="http://www.w3.org/2000/svg">
<g clip-path="url(#clip0_53:41)">
<path d="M16.3094 8.14966C16.3094 7.49415 16.2562 7.0158 16.1411 6.51974H8.65576V9.47838H13.0495C12.9609 10.2136 12.4826 11.3209 11.4195 12.065L11.4046 12.164L13.7714 13.9975L13.9353 14.0139C15.4412 12.6231 16.3094 10.5768 16.3094 8.14966Z" fill="#4285F4"/>
<path d="M8.6559 15.9452C10.8085 15.9452 12.6156 15.2364 13.9355 14.014L11.4197 12.0651C10.7465 12.5346 9.8429 12.8624 8.6559 12.8624C6.5476 12.8624 4.75821 11.4716 4.12034 9.54932L4.02685 9.55726L1.56587 11.4618L1.53369 11.5513C2.84473 14.1557 5.5377 15.9452 8.6559 15.9452Z" fill="#34A853"/>
<path d="M4.12011 9.5493C3.95181 9.05324 3.8544 8.5217 3.8544 7.97251C3.8544 7.42326 3.95181 6.89177 4.11126 6.39571L4.1068 6.29006L1.61501 4.35492L1.53349 4.3937C0.993151 5.47443 0.683105 6.68805 0.683105 7.97251C0.683105 9.25697 0.993151 10.4705 1.53349 11.5513L4.12011 9.5493Z" fill="#FBBC05"/>
<path d="M8.65583 3.08272C10.1529 3.08272 11.1627 3.72937 11.7385 4.26977L13.9885 2.07289C12.6067 0.788427 10.8084 3.05176e-05 8.65583 3.05176e-05C5.53766 3.05176e-05 2.84471 1.7894 1.53369 4.39374L4.11146 6.39576C4.75818 4.4735 6.54755 3.08272 8.65583 3.08272Z" fill="#EB4335"/>
</g>
<defs>
<clipPath id="clip0_53:41">
<rect width="15.6352" height="16" fill="white" transform="translate(0.682373)"/>
</clipPath>
</defs>
</svg>
